<svg width="120" height="17" viewBox="0 0 120 17" fill="none" xmlns="http://www.w3.org/2000/svg">
<path d="M7.21493 0.0834439C3.28978 0.22715 0.12145 3.76986 0.00338014 8.15216C-0.123187 12.8692 3.32121 16.7314 7.55131 16.7314H16.0778C16.133 16.7314 16.1772 16.6823 16.1772 16.6208V13.6057C16.1772 13.5442 16.133 13.4951 16.0778 13.4951H7.53517C5.03023 13.4951 2.93812 11.276 2.90159 8.48118C2.86422 5.64096 4.9249 3.31697 7.46297 3.31697L16.0778 3.2782C16.1321 3.2782 16.1763 3.2281 16.1763 3.16758V0.15152C16.1763 0.0900646 16.1313 0.0408936 16.0769 0.0408936L7.21493 0.0834439Z" fill="white"/>
<path d="M29.1071 9.98446C31.5865 9.98446 33.5996 7.71342 33.5631 4.93844C33.5274 2.2079 31.4837 0.039917 29.0357 0.039917H18.136C18.0808 0.039917 18.0366 0.0890762 18.0366 0.150543V16.6208C18.0366 16.6822 18.0808 16.7314 18.136 16.7314H20.8389C20.8941 16.7314 20.9382 16.6822 20.9382 16.6208V3.38785C20.9382 3.3264 20.9824 3.27723 21.0376 3.27723H29.0655C29.9098 3.27723 30.6309 4.00808 30.6607 4.94883C30.6921 5.93496 29.9828 6.74807 29.1062 6.74807L21.4309 6.75564C21.3426 6.75564 21.2984 6.87477 21.3604 6.94473L30.1034 16.6992C30.1221 16.72 30.1476 16.7314 30.174 16.7314H33.9963C34.0847 16.7314 34.1288 16.6123 34.0668 16.5423L28.1948 9.99107C28.1931 9.98918 28.194 9.98445 28.194 9.98445H29.1071V9.98446Z" fill="white"/>
<path d="M73.8994 0.0447388H71.1965C71.1422 0.0447388 71.0972 0.093898 71.0972 0.155365V14.8651C71.0972 15.8957 71.8464 16.7315 72.7705 16.7315H83.5191C83.5743 16.7315 83.6184 16.6823 83.6184 16.6209V13.6057C83.6184 13.5443 83.5743 13.4951 83.5191 13.4951H74.0982C74.0429 13.4951 73.9988 13.446 73.9988 13.3845V0.155353C73.9988 0.093898 73.9546 0.0447388 73.8994 0.0447388Z" fill="white"/>
<path d="M61.2199 0.149558C61.1435 0.00206803 60.9524 0.00206803 60.8759 0.149558L52.3792 16.565C52.341 16.6387 52.3886 16.7314 52.465 16.7314H55.5849C55.6206 16.7314 55.6529 16.7106 55.6707 16.6756L60.9617 6.45496C60.9999 6.38121 61.0959 6.38121 61.1341 6.45496L64.6881 13.3286C64.7263 13.4023 64.6788 13.495 64.6023 13.495H59.9636C59.928 13.495 59.8957 13.5158 59.8779 13.5508L58.3192 16.5621C58.2809 16.6359 58.3285 16.7285 58.405 16.7285C60.9337 16.7295 68.3958 16.7304 69.6215 16.7304C69.698 16.7304 69.7455 16.6387 69.7073 16.565C68.7916 14.7931 61.2199 0.149558 61.2199 0.149558Z" fill="white"/>
<path d="M119.9 0.0444942H116.372C116.342 0.0444942 116.315 0.0586816 116.295 0.084207L111.167 6.90301C111.127 6.95595 111.055 6.95595 111.015 6.90301L105.884 0.084207C105.865 0.0596274 105.837 0.0444942 105.809 0.0444942C105.03 0.0444942 93.9277 0.0426025 89.65 0.0426025C89.5948 0.0426025 89.5515 0.0917618 89.5515 0.153229V3.16553C89.5515 3.22698 89.5957 3.27615 89.6509 3.27615H95.4906C95.5458 3.27615 95.59 3.32626 95.59 3.38678V16.6197C95.59 16.6812 95.6342 16.7303 95.6894 16.7303H98.3922C98.4475 16.7303 98.4916 16.6812 98.4916 16.6197V3.3877C98.4916 3.32625 98.5358 3.27708 98.591 3.27708H104.454C104.483 3.27708 104.511 3.29126 104.53 3.31679L109.617 10.0817C109.633 10.1015 109.64 10.1271 109.64 10.1526V16.6206C109.64 16.6821 109.684 16.7313 109.74 16.7313H112.442C112.497 16.7313 112.542 16.6821 112.542 16.6206V10.1526C112.542 10.1261 112.55 10.1016 112.565 10.0817L119.976 0.227902C120.031 0.154163 119.985 0.0444942 119.9 0.0444942Z" fill="white"/>
<path d="M85.4021 16.7313H88.105C88.1602 16.7313 88.2043 16.6822 88.2043 16.6207V0.155182C88.2043 0.0937268 88.1602 0.0445557 88.105 0.0445557H85.4021C85.3469 0.0445557 85.3027 0.093715 85.3027 0.155182V16.6198C85.3027 16.6812 85.3469 16.7313 85.4021 16.7313Z" fill="white"/>
<path d="M50.999 3.16661V0.149597C50.999 0.0890881 50.9549 0.039917 50.8996 0.039917H42.4998C38.3656 0.039917 35.002 3.78401 35.002 8.38565C35.002 12.9873 38.3656 16.7314 42.4998 16.7314H50.8996C50.954 16.7314 50.999 16.6822 50.999 16.6208V13.6047C50.999 13.5442 50.9549 13.4941 50.8996 13.4941H42.4998C40.4773 13.4941 38.7572 12.0295 38.1473 10.0034H50.8996C50.954 10.0034 50.999 9.95419 50.999 9.89273V6.87667C50.999 6.81616 50.9548 6.76605 50.8996 6.76605H38.1482C38.7581 4.73989 40.4782 3.27534 42.5006 3.27534H50.9005C50.9549 3.27629 50.999 3.22712 50.999 3.16661Z" fill="white"/>
</svg>
